<?xml version="1.0" encoding="UTF-8"?>
<svg version="1.1" xmlns="http://www.w3.org/2000/svg" width="1024" height="1024">
<path d="M0,0 L1024,0 L1024,1024 L0,1024 Z " fill="#FEFEFE" transform="translate(0,0)"/>
<path d="M0,0 L619,0 L619,605 L612,599 L397,384 L397,207 L206,207 L0,1 Z " fill="#1EC9AB" transform="translate(164,261)"/>
<path d="M0,0 L397,0 L397,207 L206,207 L0,1 Z " fill="#94C736" transform="translate(164,261)"/>
<path d="M0,0 L222,0 L222,207 L0,207 Z " fill="#037761" transform="translate(561,261)"/>
<path d="M0,0 L222,0 L222,207 L0,207 Z M220,1 L2,2 L1,3 L1,205 L7,206 L221,206 L221,1 Z " fill="#005D4E" transform="translate(561,261)"/>
</svg>
